<svg width="310" height="64" viewBox="0 0 310 64" fill="none" xmlns="http://www.w3.org/2000/svg">
<path d="M215.679 33.6681C215.679 28.9714 222.814 21.7148 226.384 21.7148C227.363 21.7148 227.999 22.1353 227.999 23.1322C227.999 25.7336 222.502 30.3737 215.679 33.6681ZM198.082 21.7286C199.061 21.7286 199.698 22.1489 199.698 23.1463C199.698 25.7477 194.2 30.3869 187.377 33.6822C187.377 28.9852 194.512 21.7286 198.082 21.7286ZM125.381 34.203C125.381 28.6009 133.892 22.4113 140.478 22.4113C141.781 22.4113 143.093 22.6319 144.256 23.1052C136.523 35.4392 125.381 40.3438 125.381 34.203ZM118.05 60.0246C117.297 60.0246 116.813 59.6478 116.813 58.8474C116.813 57.1025 120.237 52.5643 129.245 49.321C125.416 55.5788 120.961 60.0246 118.05 60.0246ZM67.4677 34.203C67.4677 28.7944 75.8738 22.3907 82.6087 22.3907C83.9653 22.3907 85.2434 22.6134 86.3481 23.1052C78.2038 35.9239 67.4677 40.1368 67.4677 34.203ZM119.909 9.47166C120.652 9.47166 120.978 9.84348 120.978 10.5403C120.978 13.7463 113.315 23.689 105.606 29.9611C107.556 23.1313 116.287 9.47166 119.909 9.47166ZM293.968 37.7357C299.791 30.4218 292.163 19.7302 300.407 16.8321C300.216 14.7772 298.291 13.5492 295.833 13.5492C293.617 13.5492 291.247 14.7604 289.731 16.717C281.045 27.9294 272.028 36.5644 266.87 36.5644C265.152 36.5644 264.548 35.7745 264.548 34.4276C264.548 30.2457 269.796 24.1128 273.837 19.8384C274.347 19.2811 274.58 18.723 274.58 18.212C274.58 16.9574 273.14 16.1215 271.375 16.1215C266.938 16.1215 257.727 23.1463 250.922 29.5609C253.359 24.9548 256.065 21.2885 256.065 19.3026C256.065 17.2112 253.883 16.6075 251.374 16.6543C241.66 29.5733 229.195 39.1179 221.193 39.1179C219.122 39.1179 217.738 38.4185 216.87 37.385C227.059 33.219 235.567 26.2613 235.567 21.1263C235.567 17.945 232.9 16.5294 229.162 16.5294C219.568 16.5294 207.429 26.7426 206.828 36.9684C197.582 40.2951 190.694 39.7026 188.568 37.3992C198.756 33.2331 207.265 26.275 207.265 21.1404C207.265 17.9591 204.597 16.544 200.86 16.544C191.182 16.544 178.916 26.9323 178.511 37.2464C173.882 38.6701 168.619 39.296 168.619 35.4791C168.619 29.1825 178.046 24.0119 178.046 19.8217C178.046 18.6598 177.535 17.6839 176.653 17.1734C173.646 18.723 169.176 20.0072 165.925 20.0072C166.761 17.4057 165.878 15.3611 163.324 15.3611C159.562 15.3611 156.694 19.589 156.694 23.0274C156.694 24.5356 157.25 25.5842 158.161 26.2775C154.429 31.2998 149.702 35.8951 143.326 39.5459C145.23 35.5959 146.704 31.3431 148.752 25.3403C153.699 22.4207 156.21 16.4749 146.241 16.4749C138.069 16.4749 129.042 21.3881 123.393 27.9963C116.016 36.6241 107.035 41.4424 105.442 34.8951C117.621 25.7293 128.945 12.773 128.821 6.31934C128.776 3.98537 127.387 2.39976 124.12 2.39976C116.388 2.39976 98.3562 19.9848 96.8249 35.6371C83.916 42.5528 85.3786 31.657 89.3252 25.9243C95.061 22.9784 99.0308 16.4749 88.3343 16.4749C72.8139 16.4749 60.0393 30.9129 60.2551 40.1487C60.3191 42.8833 61.692 45.1394 64.5953 45.1406C67.9218 45.1433 73.2615 42.8365 78.8853 37.0235C77.8025 42.591 79.0917 45.1406 83.6546 45.1406C87.3643 45.1406 92.1174 43.2739 97.1408 40.3849C97.9751 42.9841 100.142 45.1406 104.401 45.1406C108.82 45.1406 114.268 41.6591 118.532 37.1652C118.313 38.1621 118.197 39.1612 118.197 40.1531C118.197 43.3833 119.93 45.1394 122.503 45.1406C125.401 45.1428 129.74 42.8412 134.517 38.3305C133.765 40.3818 132.906 42.4686 131.896 44.5026C121.617 48.1337 111.016 52.0639 111.016 59.1819C111.016 62.2016 113.52 64 116.677 64C124.382 64 133.85 54.793 139.761 45.8143C147.086 42.5296 155.612 36.309 162.189 27.4128C163.9 27.4544 165.797 27.1595 167.551 26.698C161.927 32.6763 159.33 36.5478 159.33 40.3111C159.33 43.4242 161.699 45.1406 165.878 45.1406C169.526 45.1406 174.111 43.8497 179.531 41.4634C181.115 43.8938 184.419 45.1406 188.666 45.1406C195.003 45.1406 202.013 42.9767 207.448 40.7322C208.653 43.3013 211.551 45.1406 216.199 45.1406C225.648 45.1406 234.196 39.1424 241.41 32.7148C238.153 37.673 233.307 45.1406 240.12 45.1406C241.188 45.1406 242.692 44.968 243.925 44.5554C248.755 35.7282 255.028 30.0134 261.297 26.2502C256.142 32.6617 254.006 37.5404 254.006 40.6997C254.006 43.6263 255.817 45.1406 258.789 45.1406C267.842 45.1406 278.476 35.832 287.631 25.1746C288.101 29.2453 290.578 33.6126 286.24 37.4035C279.686 37.2494 276.02 39.1397 276.027 42.2143C276.032 44.1081 277.618 45.1406 279.861 45.1406C282.142 45.1406 284.38 44.4778 286.456 43.4572C290.127 44.5211 293.918 45.6624 298.347 45.6624C304.808 45.6624 309.357 42.4162 309.5 37.0411C305.795 38.9814 299.825 38.2515 293.968 37.7357Z" fill="#E62324"/>
<path d="M34.5412 30.9872C34.6806 22.2988 40.8104 13.168 43.9223 13.168C44.8416 13.168 45.0368 13.7652 45.0368 14.4002C45.0368 17.3735 40.6249 25.3189 34.5412 30.9872ZM65.3871 0.000107322C62.4902 -0.0157788 59.6946 1.73856 57.8844 4.37179C66.4372 9.96713 55.9574 37.828 40.5014 37.828C38.6491 37.828 37.0774 37.2883 36.026 36.1863C44.3931 28.6459 50.4375 18.3919 50.4375 12.3449C50.4375 9.25312 48.9277 7.29183 45.3892 7.29183C35.1236 7.29183 24.3003 24.1424 26.3081 36.2988C19.8353 38.5992 16.6186 35.7217 16.6186 29.9422C16.6186 17.875 29.2215 5.35974 28.4899 1.5943C15.4312 5.63324 5.21097 -3.75073 0.5 11.5214C6.84781 8.06595 12.7073 13.5896 19.9487 9.55109C13.7296 16.7282 7.45251 26.8899 7.53701 35.4718C7.59285 41.0886 10.6253 45.1406 17.1946 45.1406C20.925 45.1406 24.7961 43.8338 28.5221 41.7021C30.1186 43.6984 32.6914 45.1406 36.6235 45.1406C52.655 45.1406 70.1762 22.6052 70.1762 6.52457C70.1762 2.25851 68.4839 0.0172815 65.3871 0.000107322Z" fill="#E62324"/>
</svg>
